<?xml version="1.0" standalone="no"?>
<!DOCTYPE svg PUBLIC "-//W3C//DTD SVG 20010904//EN"
 "http://www.w3.org/TR/2001/REC-SVG-20010904/DTD/svg10.dtd">
<svg version="1.0" xmlns="http://www.w3.org/2000/svg"
 width="200.000000pt" height="200.000000pt" viewBox="0 0 200.000000 200.000000"
 preserveAspectRatio="xMidYMid meet">
<metadata>
Created by potrace 1.14, written by Peter Selinger 2001-2017
</metadata>
<g transform="translate(0.000000,200.000000) scale(0.100000,-0.100000)"
fill="#000000" stroke="none">
<path d="M925 1960 c-3 -5 -19 -10 -34 -10 -16 0 -73 -9 -127 -20 -190 -39
-370 -153 -514 -327 -33 -39 -60 -76 -60 -82 0 -6 -16 -34 -35 -62 -19 -28
-35 -58 -35 -67 0 -8 -11 -38 -24 -66 -14 -28 -30 -80 -37 -116 -6 -36 -15
-73 -20 -82 -12 -23 -12 -265 0 -272 4 -3 11 -27 15 -53 13 -99 89 -281 155
-370 77 -105 272 -283 311 -283 6 0 37 -15 68 -34 32 -19 89 -42 127 -51 39
-9 78 -21 89 -26 47 -27 355 -27 403 0 10 6 49 17 87 26 73 18 215 87 277 135
20 17 40 30 44 30 9 0 125 121 125 131 0 5 7 9 15 9 9 0 19 8 22 17 4 10 28
50 55 90 26 39 48 75 48 80 0 5 8 27 19 49 10 21 26 66 36 99 9 33 21 68 27
78 5 11 8 41 7 68 -2 27 0 52 4 55 9 9 9 169 0 178 -4 4 -6 26 -4 50 1 24 -2
52 -7 63 -5 10 -22 58 -37 108 -15 49 -38 107 -51 127 -13 21 -24 40 -24 43 0
16 -86 129 -142 187 -73 77 -201 176 -238 185 -14 4 -45 19 -70 34 -43 26
-213 69 -272 69 -15 0 -30 5 -33 10 -3 6 -42 10 -85 10 -43 0 -82 -4 -85 -10z"/>
</g>
</svg>
